<svg xmlns="http://www.w3.org/2000/svg" xmlns:xlink="http://www.w3.org/1999/xlink" width="498" height="159.71" viewBox="0 0 498 159.71"><defs><radialGradient id="a" cx="15023.76" cy="-17787.08" r="1" gradientTransform="matrix(16.8, -17.28, 11.48, 11.16, -48091.19, 458232.71)" gradientUnits="userSpaceOnUse"><stop offset="0" stop-color="#6420ff"/><stop offset="1" stop-color="#6420ff" stop-opacity="0"/></radialGradient><radialGradient id="b" cx="15133.55" cy="-17052.07" r="1" gradientTransform="matrix(46.72, 4.16, -3.32, 37.24, -763575.04, 572028.26)" gradientUnits="userSpaceOnUse"><stop offset="0.25" stop-color="#00c4cc"/><stop offset="1" stop-color="#00c4cc" stop-opacity="0"/></radialGradient><radialGradient id="c" cx="15070.03" cy="-17562.13" gradientTransform="matrix(23.54, -18.96, 12.96, 16.1, -127027.23, 568433.47)" xlink:href="#a"/><radialGradient id="d" cx="15068.07" cy="-17377.95" gradientTransform="matrix(31.32, -15.36, 10.5, 21.42, -289414.47, 603632.48)" xlink:href="#a"/><radialGradient id="e" cx="15244.95" cy="-17045.2" r="1" gradientTransform="matrix(68, 15.04, -18.45, 83.4, -1351061.19, 1192275.19)" gradientUnits="userSpaceOnUse"><stop offset="0" stop-color="#00c4cc"/><stop offset="1" stop-color="#00c4cc" stop-opacity="0"/></radialGradient><pattern id="f" width="1" height="1" patternTransform="translate(17.87 -1091.66) scale(0.68)" patternUnits="userSpaceOnUse" viewBox="0 0 1 1"><rect width="1" height="1" fill="none"/><rect width="1" height="1" fill="none"/><path d="M0,0H100V100H0Z" fill="#7d2ae7"/><path d="M0,0H100V100H0Z" fill="url(#a)"/><path d="M0,0H100V100H0Z" fill="url(#b)"/><path d="M0,0H100V100H0Z" fill="url(#c)"/><path d="M0,0H100V100H0Z" fill="url(#d)"/><path d="M0,0H100V100H0Z" fill="url(#e)"/></pattern></defs><path d="M745.54,529.3a2.2,2.2,0,0,0-2,1.69c-5.1,14.57-12,23.23-17.68,23.23-3.26,0-4.58-3.63-4.58-9.33,0-14.27,8.55-44.52,12.85-58.32a16.13,16.13,0,0,0,.82-4.43c0-4-2.19-6-7.61-6-5.85,0-12.15,2.29-18.28,13-2.11-9.46-8.51-13.59-17.45-13.59-10.33,0-20.32,6.64-28.54,17.42s-17.88,14.32-25.15,12.58c5.23-12.8,7.18-22.36,7.18-29.46,0-11.13-5.51-17.85-14.4-17.85-13.52,0-21.31,12.9-21.31,26.47,0,10.48,4.75,21.27,15.21,26.49C615.82,531.07,603,549,598.16,549c-6.27,0-8.11-30.71-7.76-52.66.22-12.6,1.27-13.25,1.27-17.06,0-2.18-1.42-3.68-7.12-3.68-13.3,0-17.41,11.26-18,24.18a63.71,63.71,0,0,1-2.29,14.52c-5.55,19.82-17,34.86-24.48,34.86-3.46,0-4.41-3.47-4.41-8,0-14.26,8-32.09,8-47.3,0-11.19-4.91-18.26-14.15-18.26-10.88,0-25.27,12.95-38.89,37.21,4.48-18.58,6.33-36.56-6.95-36.56a18,18,0,0,0-8.24,2.14,4.67,4.67,0,0,0-2.69,4.54c1.27,19.76-15.93,70.41-32.24,70.41-3,0-4.41-3.21-4.41-8.39,0-14.29,8.52-44.47,12.8-58.29a16.4,16.4,0,0,0,.85-4.69c0-3.78-2.34-5.73-7.65-5.73-5.83,0-12.15,2.22-18.25,12.95C421.38,479.73,415,475.6,406,475.6c-14.67,0-31.06,15.51-38.25,35.73-9.63,27-29.06,53.06-55.2,53.06-23.73,0-36.26-19.75-36.26-50.94,0-45.05,33.06-81.85,57.59-81.85,11.73,0,17.33,7.48,17.33,18.92,0,13.87-7.74,20.32-7.74,25.6,0,1.62,1.34,3.21,4,3.21,10.66,0,23.2-12.52,23.2-29.6s-13.87-29.58-38.39-29.58c-40.54,0-81.33,40.79-81.33,93,0,41.58,20.52,66.66,56,66.66,24.2,0,45.35-18.82,56.75-40.79,1.29,18.2,9.56,27.72,22.16,27.72,11.2,0,20.27-6.68,27.19-18.41,2.67,12.28,9.74,18.28,18.92,18.28,10.54,0,19.35-6.68,27.74-19.08-.12,9.74,2.09,18.91,10.53,18.91,4,0,8.75-.93,9.59-4.41,8.89-36.75,30.85-66.75,37.57-66.75,2,0,2.54,1.91,2.54,4.18,0,10-7,30.45-7,43.52,0,14.12,6,23.46,18.4,23.46,13.75,0,27.71-16.84,37-41.44,2.92,23,9.22,41.54,19.08,41.54,12.1,0,33.58-25.48,46.61-52.44a28.11,28.11,0,0,0,20.14-4.74,69.47,69.47,0,0,0-5,25.33c0,25,12,32,22.24,32,11.18,0,20.24-6.68,27.19-18.41,2.29,10.58,8.14,18.26,18.9,18.26,16.84,0,31.45-17.21,31.45-31.33C749,531.56,747.4,529.3,745.54,529.3ZM396.17,552.91c-6.8,0-9.47-6.85-9.47-17.06,0-17.73,12.13-47.33,24.95-47.33,5.61,0,7.72,6.6,7.72,14.66C419.38,521.18,407.85,552.91,396.17,552.91ZM629,500c-4-4.82-5.53-11.4-5.53-17.25,0-7.23,2.64-13.33,5.8-13.33s4.14,3.11,4.14,7.45C633.42,484.11,630.83,494.69,629,500Zm52.71,52.92c-6.8,0-9.46-7.87-9.46-17.06,0-17.11,12.12-47.33,25-47.33,5.6,0,7.59,6.54,7.59,14.66C704.9,521.18,693.57,552.91,681.72,552.91Z" transform="translate(-251 -420.15)" fill="url(#f)"/></svg>